# xmcd CD database file
#
# Track frame offsets:
#	150
#	10082
#	37170
#	62995
#	75162
#	97127
#	121725
#	132517
#	163670
#	189337
#	199800
#	210190
#	229905
#	245130
#	277127
#
# Disc length: 3851 seconds
#
# Revision: 0
# Processed by: cddbd v1.4PL0 Copyright (c) Steve Scherf et al.
# Submitted via: CDex 1.50beta9
#
DISCID=d40f090f
DTITLE=Jeanette Lindström - Walk
DYEAR=2003
DGENRE=Jazz
TTITLE0=Intro
TTITLE1=This time
TTITLE2=Walk
TTITLE3=Reasons
TTITLE4=Trains and boats and planes
TTITLE5=Turning pages
TTITLE6=Interlude 1 - Waiting
TTITLE7=The two lonely people
TTITLE8=I run
TTITLE9=Interlude 2
TTITLE10=Where is Wolfgang
TTITLE11=What remains
TTITLE12=Closer
TTITLE13=That sorry school
TTITLE14=Keeping things whole
EXTD=YEAR: 2003
EXTT0=
EXTT1=
EXTT2=
EXTT3=
EXTT4=
EXTT5=
EXTT6=
EXTT7=
EXTT8=
EXTT9=
EXTT10=
EXTT11=
EXTT12=
EXTT13=
EXTT14=
PLAYORDER=
